<?xml version="1.0" encoding="utf-8"?>
<!-- Generator: Adobe Illustrator 17.0.0, SVG Export Plug-In . SVG Version: 6.00 Build 0)  -->
<!DOCTYPE svg PUBLIC "-//W3C//DTD SVG 1.1//EN" "http://www.w3.org/Graphics/SVG/1.1/DTD/svg11.dtd">
<svg version="1.1" id="Layer_1" xmlns="http://www.w3.org/2000/svg" xmlns:xlink="http://www.w3.org/1999/xlink" x="0px" y="0px"
	 width="224.645px" height="41.442px" viewBox="19.196 18.047 224.645 41.442"
	 enable-background="new 19.196 18.047 224.645 41.442" xml:space="preserve">
<g>
	<g>
		<g>
			<path fill="#192530" d="M48.005,47.282c0.001,0,0.002-0.001,0.003-0.001c0.69-0.202,1.31-0.543,1.86-1.005
				c0.442-0.37,0.84-0.848,1.095-1.367c0.287-0.584,0.433-1.227,0.425-1.878c0-1.16-0.349-2.095-1.224-2.742
				c-0.22-0.304-0.508-0.57-0.872-0.794l1.477-0.538l-0.102-0.346l0.36,0.139l-0.123,0.341l1.869,0.72
				c0.491-1.024,1.023-2.039,2.098-2.377v5.224c0,0.166-0.001,1.215-0.196,1.484c-0.188,0.259-0.916,0.222-1.141,0.225v2.248h0.632
				v0.632h6.523L60.676,45l-0.412-0.007c-0.073-0.001-0.145-0.007-0.217-0.016l-0.004-0.609l-0.412-0.007
				c-0.076-0.001-0.153-0.007-0.228-0.018c-0.053-0.344-0.063-0.791-0.063-1.053v-5.971c0.466,0.021,0.916,0.176,1.296,0.446
				c0.328,0.43,0.569,0.929,0.801,1.415l0.265-0.101c0.131,0.241,0.25,0.489,0.367,0.733l1.879-0.719l-0.934-2.567l0.069,0.002
				c0.074,0.002,0.149,0.008,0.222,0.019v0.602l0.409,0.011c0.081,0.002,0.161,0.009,0.241,0.021
				c0.053,0.346,0.063,0.796,0.062,1.058v4.419c0.001,0.258-0.007,0.492-0.028,0.749c-0.013,0.164-0.06,0.586-0.168,0.735
				c-0.189,0.26-0.918,0.232-1.149,0.237v2.236h0.632v0.632h6.521V45l-0.414-0.007c-0.073-0.001-0.146-0.007-0.218-0.016v-0.608
				l-0.414-0.007c-0.078-0.001-0.156-0.007-0.234-0.018c-0.011-0.064-0.02-0.128-0.028-0.209c-0.028-0.29-0.039-0.553-0.038-0.843
				v-1.025h0.163l3.074,4.349h0.185l0.446,0.632h3.74h0.519h9.957l0.582-1.322v0.69h0.632v0.632h5.666v-2.213l-0.414-0.007
				c-0.073-0.001-0.146-0.005-0.218-0.011v-0.613l-0.411-0.01c-0.069-0.001-0.139-0.005-0.208-0.01l0.395-1.272h2.674l0.258,0.686
				c0.045,0.115,0.133,0.43,0.02,0.496c-0.215,0.126-0.949,0.1-1.219,0.1v2.22h0.632v0.632h5.861h0.66h4.657v-1.234l0.207,0.602
				h0.414l0.218,0.632h2.19l0.209-0.632h0.402v0.632h6.811v-2.254h-0.54c-0.026,0-0.057,0-0.091-0.001V44.36h-0.54
				c-0.075,0.001-0.188-0.002-0.307-0.017c-0.056-0.346-0.066-0.791-0.065-1.054V38.87c-0.001-0.262,0.008-0.501,0.03-0.762
				c0.014-0.162,0.064-0.588,0.177-0.734c0.136-0.174,0.557-0.209,0.795-0.207h0.541v-2.254h-0.632v-0.632h-5.971l-1.865,5.543
				l-1.699-4.911h-0.413l-0.219-0.632h-5.603v2.234l0.409,0.011c0.074,0.002,0.149,0.008,0.222,0.019v0.602l0.409,0.011
				c0.081,0.002,0.161,0.009,0.241,0.021c0.053,0.346,0.063,0.796,0.062,1.058v4.419c0.001,0.258-0.007,0.492-0.028,0.749
				c-0.013,0.164-0.06,0.586-0.168,0.735c-0.133,0.183-0.534,0.223-0.84,0.233l-0.022-0.003c-0.129-0.015-0.256-0.042-0.38-0.08
				h-0.001c-0.103-0.202-0.196-0.422-0.261-0.589l-3.4-8.788h-0.387l-0.244-0.632h-3.168L89.11,42.73
				c-0.155,0.384-0.348,0.733-0.611,1.054c-0.123,0.147-0.267,0.275-0.428,0.379c-0.067,0.043-0.132,0.076-0.197,0.104l0.691-1.57
				l-0.733-0.403l0.101-0.229l-1.78-0.978c-0.37,0.613-0.607,0.991-1.06,1.499c-0.156,0.174-0.319,0.337-0.491,0.49v-5.159
				c0.137,0.095,0.269,0.197,0.395,0.305c0.281,0.322,0.492,0.629,0.779,1.056l0.138-0.073c0.159,0.209,0.311,0.432,0.493,0.705
				l1.757-0.926l-1.845-4.071h-0.345l-0.286-0.632H75.46v2.234l0.409,0.011c0.074,0.002,0.149,0.008,0.222,0.019v0.602l0.409,0.011
				c0.081,0.002,0.161,0.009,0.241,0.021c0.053,0.346,0.063,0.796,0.062,1.058v4.419c0.001,0.258-0.007,0.492-0.028,0.749
				c-0.013,0.164-0.06,0.586-0.168,0.735c-0.189,0.26-0.918,0.232-1.149,0.237v0.003c-0.236-0.033-0.464-0.107-0.675-0.219
				c-0.03-0.017-0.061-0.037-0.093-0.059l-1.857-2.398c1.512-0.625,2.275-1.662,2.281-3.248c0.002-0.487-0.079-0.987-0.276-1.436
				c-0.217-0.493-0.545-0.875-0.941-1.17c-0.965-1.319-2.909-1.578-4.428-1.57h-6.795v1.308l-0.246-0.676h-0.402l-0.23-0.632H51.784
				l-1.318,3.643l-0.902-3.07h-0.446l-0.099-0.336l1.498,0.503c1.008-1.169,1.526-1.789,2.456-2.942
				c0.851-1.049,1.642-2.125,2.372-3.223c0.472-0.71,0.829-1.322,1.145-2.058c0.139-0.324,0.245-0.7,0.252-1.042
				c0.007-0.382-0.101-0.842-0.25-1.206c-0.163-0.4-0.377-0.787-0.637-1.157c-0.512-0.738-1.234-1.46-2.102-2.021
				c-0.671-0.578-1.473-1.069-2.361-1.375c-0.555-0.191-1.158-0.29-1.768-0.293H49.55l-0.071,0.014
				c-0.451,0.088-0.879,0.231-1.269,0.421c-0.385,0.185-0.748,0.394-1.086,0.624c-0.882,0.532-1.728,1.098-2.532,1.695
				c-1.782,1.316-3.719,2.897-5.472,4.398c-0.054-0.64-0.098-1.275-0.133-1.938c-0.075-1.385-0.19-2.768-0.345-4.149
				c0.103-0.495,0.153-0.996,0.151-1.497l-0.002-0.593l-0.843,0.223c0.003-0.087,0.004-0.174,0.004-0.261l-0.002-0.593
				l-10.331,2.736c0.012,1.392,0.08,2.522,0.28,3.893c0.18,1.261,0.41,2.517,0.69,3.768c0.223,1.02,0.47,2.038,0.74,3.052
				c0.294,1.144,0.66,2.277,1.099,3.395c-1.409,1.263-2.771,2.707-3.866,4.135c-1.354,1.767-2.826,3.89-4.003,5.726
				c-1.118,1.743-2.162,3.293-3.363,5.012l0.182,0.207c0.534,0.606,1.089,1.202,1.666,1.786l0.388,0.502l0.15,0.207l0.061,0.099
				l-0.028-0.057l-0.015-0.06l0.057-0.229c0.008-0.012,0.018-0.024,0.028-0.036c0.067,0.068,0.134,0.137,0.201,0.205l0.388,0.502
				l0.15,0.207l0.061,0.099l-0.028-0.057l-0.015-0.06l0.057-0.229c0.1-0.147,0.306-0.235,0.526-0.227
				c0.309,0.012,0.547,0.21,0.531,0.442c-0.004,0.058-0.024,0.114-0.059,0.166c1.454-2.175,2.954-4.227,4.609-6.32
				c1.548-1.957,3.175-3.813,4.956-5.645c0.473,1.266,1.011,2.512,1.61,3.748c0.773,1.594,1.546,2.84,2.619,4.351l0.344-0.085
				c0.159,0.233,0.325,0.471,0.498,0.715l10.037-2.468C48.113,47.447,48.058,47.364,48.005,47.282L48.005,47.282z M48.141,34.224
				H47.3l-0.179,0.428c-0.798-0.422-1.62-0.624-2.502-0.628c-1.107-0.004-2.079,0.272-2.926,0.865
				c-0.132-0.365-0.259-0.729-0.379-1.094c1.173-0.864,2.335-1.694,3.541-2.532c1.03-0.716,2.049-1.441,3.055-2.176
				c-0.38,1.413-0.979,2.81-1.602,4.171l0.979,0.329c-0.046,0.101-0.091,0.201-0.137,0.301L48.141,34.224L48.141,34.224z
				 M45.268,42.696l0.579,0.147c0.474,0.114,1.048,0.277,1.51,0.505c-0.007,0.114-0.038,0.226-0.091,0.328
				c-0.162,0.298-0.519,0.527-0.855,0.626c-0.074,0.022-0.146,0.039-0.218,0.053C45.888,43.829,45.587,43.288,45.268,42.696
				L45.268,42.696z M44.05,37.769c0.01-0.053,0.029-0.105,0.056-0.153c0.058-0.097,0.146-0.181,0.241-0.241
				c0.318-0.204,0.702-0.266,1.074-0.265c0.657,0.002,1.273,0.199,1.816,0.567c0.113,0.077,0.221,0.156,0.323,0.239
				c0.282,0.342,0.457,0.645,0.706,1.089c-0.496-0.186-1.004-0.34-1.52-0.46l-0.933-0.217C45.294,38.21,44.607,38.035,44.05,37.769
				L44.05,37.769z M48.478,38.931c0.047,0.07,0.092,0.141,0.137,0.215c-0.11-0.048-0.223-0.094-0.344-0.139L48.478,38.931
				L48.478,38.931z M105.499,45.019V44.39l-0.425,0.003c-0.114,0.001-0.227-0.005-0.34-0.019c-0.012-0.073-0.021-0.142-0.026-0.198
				c-0.029-0.293-0.04-0.56-0.039-0.855v-1.554l1.121,3.256l-0.085,0.001C105.637,45.026,105.568,45.024,105.499,45.019
				L105.499,45.019z M81.282,44.369c-0.011-0.126-0.016-0.25-0.015-0.382v-2.271c0.156,0,0.311,0.005,0.453,0.04
				c0.159,0.397,0.198,0.877,0.24,1.271h0.556c0.035,0.218,0.055,0.436,0.075,0.632h1.243c-0.32,0.204-0.655,0.369-1.014,0.496
				c-0.416,0.146-0.854,0.221-1.295,0.222C81.442,44.378,81.362,44.375,81.282,44.369L81.282,44.369z M81.267,38.742v-0.553
				c-0.001-0.178,0.007-0.34,0.028-0.517c0.007-0.055,0.047-0.321,0.112-0.388c0.09-0.092,0.321-0.124,0.521-0.136l-0.01,0.253
				c-0.008,0.21-0.03,0.419-0.065,0.626c-0.024,0.138-0.089,0.422-0.195,0.537C81.573,38.659,81.428,38.712,81.267,38.742
				L81.267,38.742z M83.973,37.547c0.054,0.026,0.108,0.053,0.162,0.081h-0.162V37.547L83.973,37.547z M68.478,39.25l-0.004-1.061
				c-0.001-0.172,0.008-0.339,0.029-0.509c0.009-0.071,0.049-0.318,0.117-0.391c0.123-0.132,0.489-0.143,0.686-0.145
				c0.391-0.004,0.831,0.059,1.19,0.233c0.06,0.145,0.093,0.312,0.091,0.504c-0.002,0.2-0.028,0.381-0.12,0.562
				C70.163,39.041,69.234,39.208,68.478,39.25L68.478,39.25z M93.963,39.697l0.177,0.53h-0.385L93.963,39.697L93.963,39.697z
				 M110.709,42.569v0.121c0.001,0.281-0.011,1.252-0.206,1.498c-0.072,0.09-0.218,0.143-0.387,0.172L110.709,42.569L110.709,42.569
				z"/>
		</g>
		<g>
			<path fill="#192530" d="M241.634,39.348l1.574-0.585l-1.181-4.107h-0.407l-0.164-0.572h-1.58l-0.185,0.452
				c-0.801-0.44-1.629-0.652-2.521-0.655c-1.269-0.005-2.359,0.37-3.277,1.17c-0.393,0.343-0.743,0.772-0.973,1.243
				c-0.258,0.528-0.389,1.11-0.382,1.697c-0.001,1.098,0.452,2.118,1.313,2.795c0.204,0.26,0.449,0.493,0.733,0.691
				c0.171,0.119,0.344,0.209,0.537,0.288c0.712,0.291,1.841,0.594,2.634,0.794l0.592,0.153c0.507,0.125,1.125,0.306,1.603,0.563
				c0,0.006,0.001,0.011,0.001,0.017c0.001,0.145-0.032,0.288-0.098,0.417c-0.166,0.313-0.53,0.556-0.878,0.661
				c-0.233,0.07-0.45,0.096-0.693,0.096c-0.381,0.001-0.759-0.061-1.12-0.183c-0.511-0.174-0.996-0.473-1.422-0.839
				c-0.044-0.052-0.088-0.104-0.13-0.157c-0.432-0.541-0.666-0.962-0.991-1.601l-0.226,0.079c-0.112-0.198-0.222-0.408-0.345-0.65
				l-1.96,0.68l1.592,4.993h0.389l0.182,0.572h1.574l0.159-0.586c0.394,0.194,0.801,0.361,1.218,0.499
				c0.461,0.15,0.958,0.227,1.44,0.231c0.624,0.006,1.257-0.082,1.854-0.261c0.685-0.206,1.299-0.552,1.842-1.017
				c0.44-0.377,0.835-0.861,1.086-1.386c0.282-0.589,0.424-1.234,0.417-1.887c0-1.153-0.333-2.095-1.196-2.75
				c-0.239-0.32-0.555-0.597-0.96-0.827C241.667,39.366,241.651,39.357,241.634,39.348L241.634,39.348z M236.494,37.652
				c0.003-0.089,0.027-0.177,0.07-0.255c0.252-0.434,0.92-0.541,1.348-0.539c0.666,0.003,1.288,0.207,1.835,0.585
				c0.115,0.08,0.224,0.162,0.328,0.247c0.317,0.377,0.499,0.694,0.76,1.17l0.198-0.074c0.074,0.115,0.144,0.234,0.218,0.365
				c-0.911-0.428-1.926-0.658-2.894-0.88C237.805,38.145,237.067,37.951,236.494,37.652L236.494,37.652z"/>
			<path fill="#192530" d="M223.926,44.44c-0.021-0.108-0.034-0.191-0.046-0.319c-0.027-0.299-0.038-0.57-0.037-0.871v-3.659
				l4.192,7.044h0.231l0.34,0.572h2.723v-8.501c0-0.192,0-1.277,0.204-1.562c0.192-0.268,0.863-0.236,1.115-0.239v-2.189h-0.572
				v-0.572h-5.012v2.154l0.374,0.007c0.066,0.001,0.132,0.006,0.197,0.014v0.551l0.374,0.007c0.106,0.002,0.211,0.012,0.314,0.032
				c0.023,0.114,0.038,0.231,0.047,0.319c0.028,0.297,0.039,0.567,0.038,0.865v1.329l-2.789-4.705h-0.233l-0.339-0.572h-5.462v2.184
				l0.37,0.01c0.067,0.002,0.135,0.007,0.201,0.016V36.9l0.37,0.01c0.108,0.003,0.216,0.015,0.322,0.035
				c0.069,0.368,0.081,0.888,0.08,1.189v4.511c0.001,0.264-0.007,0.504-0.028,0.767c-0.014,0.184-0.062,0.616-0.178,0.78
				c-0.195,0.275-0.875,0.252-1.139,0.258v2.186h0.572v0.572h5.012V45.04l-0.379-0.003c-0.065,0-0.129-0.004-0.193-0.011v-0.558
				l-0.379-0.003C224.123,44.465,224.024,44.456,223.926,44.44L223.926,44.44z"/>
			<path fill="#192530" d="M208.261,45.349c0.096,0.11,0.197,0.217,0.301,0.32c1.321,1.305,2.995,1.803,4.759,1.801
				c1.859-0.003,3.486-0.541,4.769-1.8c1.324-1.298,1.839-2.953,1.837-4.71c-0.001-0.831-0.108-1.617-0.378-2.406
				c-0.337-0.985-0.942-1.865-1.721-2.547c-0.651-0.743-1.483-1.328-2.413-1.674c-0.871-0.323-1.741-0.454-2.666-0.453
				c-1.853,0.002-3.48,0.537-4.757,1.796c-0.591,0.582-1.068,1.293-1.363,2.07c-0.317,0.831-0.473,1.755-0.46,2.644
				c-0.009,0.815,0.117,1.626,0.374,2.4c0.293,0.873,0.797,1.662,1.45,2.307C208.078,45.184,208.169,45.268,208.261,45.349
				L208.261,45.349z M211.5,44.303c-0.664-0.937-0.788-2.375-0.787-3.342c0.001-0.565,0.033-1.038,0.126-1.596
				c0.245-1.42,0.84-2.094,1.35-2.393c0.347-0.204,0.732-0.284,1.13-0.283c0.366,0.001,0.719,0.064,1.047,0.234
				c0.074,0.038,0.146,0.082,0.216,0.13c0.023,0.033,0.045,0.067,0.066,0.1c0.283,0.457,0.469,0.942,0.57,1.47
				c0.119,0.625,0.162,1.13,0.161,1.765c-0.001,0.556-0.033,1.046-0.128,1.595c-0.153,0.884-0.548,1.916-1.364,2.393
				c-0.35,0.205-0.738,0.285-1.139,0.285c-0.363-0.001-0.713-0.064-1.039-0.232C211.637,44.39,211.567,44.348,211.5,44.303
				L211.5,44.303z"/>
			<path fill="#192530" d="M200.016,46.635l-0.003,0.572h6.425V45.01l-0.375-0.007c-0.066-0.001-0.132-0.006-0.197-0.014v-0.552
				l-0.375-0.007c-0.104-0.002-0.207-0.012-0.309-0.031c-0.069-0.367-0.082-0.884-0.081-1.185v-4.511
				c-0.001-0.265,0.007-0.507,0.028-0.771c0.015-0.187,0.063-0.618,0.18-0.783c0.197-0.276,0.864-0.244,1.128-0.247v-2.19h-0.572
				V34.14h-6.423v1.755l-0.422-1.183h-0.368l-0.204-0.572h-9.959l-1.158,3.269l-0.953-2.909h-0.384l-0.187-0.572h-1.589
				l-0.134,0.499c-0.752-0.361-1.518-0.548-2.337-0.549c-0.751-0.002-1.495,0.138-2.193,0.412c-0.692,0.269-1.325,0.671-1.862,1.184
				c-0.637,0.6-1.157,1.334-1.479,2.15c-0.343,0.869-0.475,1.787-0.475,2.712c0,0.758,0.09,1.481,0.289,2.16l-0.414-0.232
				l0.087-0.202l-1.712-0.961c-0.36,0.61-0.598,0.992-1.043,1.501c-0.194,0.222-0.4,0.427-0.621,0.616v-5.573
				c0.154,0.107,0.303,0.221,0.444,0.344c0.316,0.357,0.537,0.681,0.841,1.144l0.133-0.071c0.141,0.192,0.278,0.398,0.439,0.643
				l1.689-0.909l-1.813-4.084h-0.318l-0.254-0.572h-10.166v2.184l0.37,0.01c0.067,0.002,0.135,0.007,0.201,0.016v0.545l0.37,0.01
				c0.108,0.003,0.216,0.015,0.322,0.035c0.069,0.368,0.081,0.888,0.08,1.189v4.511c0.001,0.264-0.007,0.504-0.028,0.767
				c-0.014,0.184-0.062,0.616-0.178,0.78c-0.195,0.275-0.875,0.252-1.139,0.258v2.186h0.572v0.572h10.41l1.857-4.309
				c0.312,0.85,0.81,1.622,1.535,2.296c0.043,0.04,0.086,0.079,0.13,0.118c0.137,0.156,0.284,0.307,0.441,0.454
				c0.59,0.55,1.281,0.979,2.036,1.263c0.766,0.301,1.581,0.456,2.404,0.458c1.845,0.015,3.454-0.84,4.558-2.254
				c0.521-0.667,0.796-1.195,1.162-1.987l-0.687-0.326c0.037-0.079,0.076-0.161,0.115-0.246l-2.101-0.998
				c-0.271,0.523-0.437,0.839-0.783,1.273c-0.258,0.324-0.558,0.613-0.892,0.859c-0.25,0.185-0.512,0.334-0.799,0.451
				c-0.615,0.252-1.395,0.269-2.01-0.039c-0.086-0.043-0.168-0.093-0.247-0.148c-0.316-0.432-0.528-0.962-0.634-1.465
				c-0.125-0.591-0.171-1.092-0.17-1.696c0.001-0.562,0.035-0.987,0.132-1.54c0.1-0.569,0.291-1.082,0.592-1.575
				c0.181-0.297,0.425-0.55,0.713-0.744c0.557-0.363,1.316-0.38,1.914-0.106c0.258,0.118,0.49,0.267,0.705,0.446
				c0.145,0.17,0.278,0.35,0.4,0.539c0.359,0.556,0.535,0.957,0.799,1.598l0.284-0.098c0.093,0.202,0.183,0.417,0.287,0.67
				l1.948-0.672l-0.137-0.418l1.519,0.598c0.501-1.067,1.063-2.139,2.216-2.448v5.486c0.001,0.203-0.001,1.258-0.206,1.547
				c-0.194,0.274-0.872,0.242-1.131,0.245v2.198h0.572v0.572h6.442l-0.013-2.197l-0.372-0.006c-0.066-0.001-0.131-0.006-0.196-0.014
				l-0.003-0.552l-0.372-0.006c-0.104-0.002-0.207-0.012-0.309-0.031c-0.069-0.367-0.082-0.884-0.081-1.185V37.07
				c0.558,0.024,1.002,0.2,1.367,0.474c0.34,0.436,0.602,0.962,0.847,1.489l0.243-0.095c0.116,0.218,0.223,0.442,0.328,0.667
				l1.806-0.705l-0.916-2.568l0.219,0.004c0.066,0.001,0.132,0.006,0.197,0.014v0.551l0.374,0.007
				c0.101,0.002,0.201,0.012,0.3,0.029c0.021,0.109,0.034,0.192,0.046,0.323c0.027,0.3,0.037,0.571,0.036,0.872v4.511
				c0,0.19,0,1.272-0.201,1.555c-0.189,0.266-0.868,0.234-1.116,0.238l-0.013,2.198L200.016,46.635L200.016,46.635z M169.014,44.433
				c-0.02-0.169-0.027-0.33-0.026-0.504v-2.367h0.17c0.13-0.001,0.259,0.015,0.383,0.055c0.186,0.415,0.231,0.927,0.275,1.357h0.505
				c0.029,0.196,0.048,0.391,0.066,0.572h1.526c-0.057,0.041-0.115,0.082-0.173,0.121c-0.34,0.23-0.7,0.413-1.086,0.553
				c-0.42,0.151-0.862,0.228-1.308,0.229C169.232,44.449,169.123,44.445,169.014,44.433L169.014,44.433z M168.988,38.712V38.01
				c-0.001-0.183,0.007-0.351,0.028-0.533c0.009-0.079,0.051-0.35,0.126-0.428c0.137-0.142,0.541-0.155,0.762-0.156
				c0.154-0.001,0.308,0.006,0.461,0.022h-0.572l-0.014,0.367c-0.008,0.216-0.03,0.431-0.065,0.645
				c-0.026,0.155-0.094,0.45-0.208,0.577C169.395,38.627,169.197,38.685,168.988,38.712L168.988,38.712z M171.753,37.311
				c0.109,0.053,0.217,0.112,0.322,0.175h-0.322V37.311L171.753,37.311z"/>
			<path fill="#192530" d="M152.422,36.353v0.545l0.37,0.01c0.108,0.003,0.216,0.015,0.322,0.035
				c0.069,0.368,0.081,0.888,0.08,1.189v4.511c0.001,0.264-0.007,0.504-0.028,0.767c-0.014,0.184-0.062,0.616-0.178,0.78
				c-0.176,0.249-0.751,0.254-1.054,0.257c0.173-0.478,0.259-0.985,0.253-1.496c0-1.153-0.333-2.095-1.196-2.75
				c-0.239-0.32-0.555-0.597-0.96-0.827c-0.016-0.009-0.033-0.019-0.05-0.028l1.574-0.585l-1.181-4.107h-0.407l-0.164-0.572h-1.58
				l-0.185,0.452c-0.801-0.44-1.629-0.652-2.521-0.655c-1.269-0.005-2.359,0.37-3.277,1.17c-0.393,0.343-0.743,0.772-0.973,1.243
				c-0.258,0.528-0.389,1.11-0.382,1.697c-0.001,1.098,0.452,2.118,1.313,2.795c0.204,0.26,0.449,0.493,0.733,0.691
				c0.171,0.119,0.344,0.209,0.537,0.288c0.712,0.291,1.841,0.594,2.634,0.794l0.592,0.153c0.507,0.125,1.125,0.306,1.603,0.563
				c0,0.006,0.001,0.011,0.001,0.017c0.001,0.145-0.032,0.288-0.098,0.417c-0.166,0.313-0.53,0.556-0.878,0.661
				c-0.233,0.07-0.45,0.096-0.693,0.096c-0.381,0.001-0.759-0.061-1.12-0.183c-0.511-0.174-0.996-0.473-1.422-0.839
				c-0.044-0.052-0.088-0.104-0.13-0.157c-0.432-0.541-0.666-0.962-0.991-1.601l-0.226,0.079c-0.112-0.198-0.222-0.408-0.345-0.65
				l-1.96,0.68l1.592,4.993h0.389l0.182,0.572h1.574l0.159-0.586c0.394,0.194,0.801,0.361,1.218,0.499
				c0.461,0.15,0.958,0.227,1.44,0.231c0.624,0.006,1.257-0.082,1.854-0.261c0.685-0.206,1.299-0.552,1.842-1.017
				c0.44-0.377,0.835-0.861,1.086-1.386c0.028-0.058,0.054-0.116,0.079-0.174v1.97h0.572v0.572h6.44V45.01l-0.374-0.007
				c-0.066-0.001-0.132-0.006-0.197-0.014v-0.551l-0.374-0.007c-0.103-0.002-0.205-0.012-0.306-0.031
				c-0.023-0.115-0.038-0.232-0.046-0.32c-0.049-0.523-0.037-1.171-0.037-1.697h1.7c2.558,0.012,4.713-0.883,4.707-3.755
				c-0.001-0.536-0.068-1.015-0.25-1.522c-0.213-0.594-0.579-1.063-1.036-1.42c-0.548-0.709-1.377-1.143-2.267-1.346
				c-0.616-0.14-1.278-0.207-1.91-0.199h-6.621v2.184l0.37,0.01C152.288,36.339,152.355,36.344,152.422,36.353L152.422,36.353z
				 M149.599,39.152c-0.911-0.428-1.926-0.658-2.894-0.88c-0.551-0.126-1.29-0.321-1.863-0.619c0.003-0.089,0.027-0.177,0.07-0.255
				c0.252-0.434,0.92-0.541,1.348-0.539c0.666,0.003,1.288,0.207,1.835,0.585c0.115,0.08,0.224,0.162,0.328,0.247
				c0.317,0.377,0.499,0.694,0.76,1.17l0.198-0.074C149.455,38.902,149.525,39.021,149.599,39.152L149.599,39.152z M157.522,39.581
				l-0.005-1.572c-0.001-0.175,0.007-0.343,0.026-0.517c0.01-0.087,0.048-0.346,0.121-0.43c0.116-0.133,0.451-0.143,0.637-0.145
				c0.372-0.004,0.773,0.062,1.105,0.238c0.014,0.029,0.028,0.059,0.04,0.09c0.096,0.236,0.118,0.432,0.122,0.684
				c0.008,0.468-0.152,0.946-0.54,1.22C158.604,39.449,158.058,39.551,157.522,39.581L157.522,39.581z"/>
			<path fill="#192530" d="M122.617,36.938c0.021,0.109,0.034,0.192,0.046,0.322c0.027,0.3,0.037,0.571,0.036,0.872v4.511
				c0,0.19,0,1.272-0.201,1.555c-0.189,0.266-0.868,0.234-1.116,0.238l-0.013,2.198h0.575l-0.003,0.572h6.425v-0.572h0.142v0.572
				h5.012V45.04l-0.379-0.003c-0.065,0-0.129-0.004-0.193-0.011v-0.558l-0.379-0.003c-0.099-0.001-0.198-0.009-0.295-0.026
				c-0.021-0.108-0.034-0.191-0.046-0.319c-0.027-0.299-0.038-0.57-0.037-0.871V39.59l4.192,7.044h0.232l0.34,0.572h2.723v-8.501
				c0-0.192,0-1.277,0.204-1.562c0.192-0.268,0.863-0.236,1.115-0.239v-2.189h-0.572v-0.572h-5.012v2.154l0.374,0.007
				c0.066,0.001,0.132,0.006,0.197,0.014v0.551l0.374,0.007c0.106,0.002,0.211,0.012,0.314,0.032
				c0.023,0.114,0.038,0.231,0.046,0.319c0.028,0.297,0.039,0.567,0.038,0.865v1.329l-2.789-4.705h-0.233l-0.339-0.572h-5.462v0.572
				h-0.142v-0.572h-6.423v2.188l0.374,0.007c0.071,0.001,0.135,0.006,0.197,0.014v0.551l0.374,0.007
				C122.428,36.911,122.52,36.921,122.617,36.938L122.617,36.938z M127.794,44.99v-0.552l-0.375-0.007
				c-0.104-0.002-0.207-0.012-0.309-0.031c-0.069-0.367-0.082-0.884-0.081-1.185v-4.511c-0.001-0.265,0.007-0.507,0.028-0.771
				c0.015-0.187,0.063-0.618,0.18-0.783c0.197-0.276,0.864-0.244,1.128-0.247V36.34c0.048,0.003,0.095,0.007,0.142,0.013v0.545
				l0.37,0.01c0.108,0.003,0.216,0.015,0.322,0.035c0.069,0.368,0.081,0.888,0.08,1.189v4.511c0.001,0.264-0.007,0.504-0.028,0.767
				c-0.014,0.184-0.062,0.616-0.178,0.78c-0.195,0.275-0.875,0.252-1.139,0.258v0.553C127.889,45,127.842,44.996,127.794,44.99
				L127.794,44.99z"/>
		</g>
	</g>
	<path fill="#7F7F7F" d="M237.189,51.756c0.022,0.002,0.045,0.003,0.07,0.004c0.025,0.001,0.063,0.001,0.114,0.001
		c0.314,0,0.549-0.056,0.704-0.167s0.233-0.278,0.233-0.5c0-0.198-0.066-0.354-0.197-0.467c-0.131-0.113-0.312-0.169-0.541-0.169
		c-0.151,0-0.252,0.03-0.306,0.09c-0.053,0.06-0.08,0.19-0.08,0.39L237.189,51.756L237.189,51.756z M237.82,49.99
		c0.492,0,0.864,0.096,1.117,0.289c0.252,0.193,0.379,0.479,0.379,0.859c0,0.367-0.119,0.642-0.357,0.823
		c-0.238,0.182-0.597,0.273-1.078,0.273h-0.691v0.394c0,0.301,0.031,0.493,0.092,0.574c0.061,0.082,0.178,0.125,0.352,0.131v0.468
		h-1.884v-0.465c0.176-0.007,0.295-0.052,0.355-0.134c0.061-0.082,0.091-0.273,0.091-0.574v-1.465c0-0.303-0.03-0.495-0.091-0.576
		s-0.179-0.125-0.355-0.132V49.99H237.82L237.82,49.99z"/>
	<path fill="#7F7F7F" d="M242.86,52.477l0.474,0.22c-0.187,0.389-0.428,0.686-0.723,0.89c-0.295,0.204-0.63,0.306-1.007,0.306
		c-0.255,0-0.506-0.047-0.753-0.14c-0.247-0.094-0.459-0.222-0.635-0.386c-0.206-0.189-0.358-0.406-0.459-0.651
		c-0.1-0.245-0.15-0.524-0.15-0.836c0-0.314,0.05-0.593,0.149-0.836s0.252-0.461,0.46-0.654c0.167-0.156,0.359-0.276,0.577-0.359
		c0.218-0.084,0.445-0.125,0.682-0.125c0.147,0,0.292,0.02,0.434,0.059c0.142,0.039,0.283,0.099,0.423,0.178l0.061-0.22h0.339
		l0.468,1.399l-0.416,0.14c-0.141-0.33-0.317-0.589-0.526-0.775s-0.427-0.28-0.653-0.28c-0.29,0-0.521,0.132-0.694,0.397
		c-0.173,0.264-0.259,0.623-0.259,1.077c0,0.457,0.09,0.815,0.27,1.073c0.18,0.258,0.428,0.387,0.744,0.387
		c0.222,0,0.442-0.078,0.658-0.233C242.539,52.951,242.718,52.742,242.86,52.477L242.86,52.477z"/>
	<g>
		<path fill="#3498DB" d="M41.404,46.343l-1.395-4.284l1.295-0.44c0.537,1.018,1.19,1.806,1.959,2.362s1.591,0.834,2.466,0.834
			c0.581,0,1.068-0.147,1.461-0.44c0.393-0.293,0.589-0.656,0.589-1.088c0-0.592-0.822-1.088-2.466-1.486
			c-0.255-0.066-0.451-0.116-0.589-0.149c-0.924-0.232-1.617-0.425-2.08-0.577c-0.462-0.152-0.785-0.295-0.967-0.428
			c-0.421-0.293-0.744-0.659-0.971-1.096s-0.34-0.922-0.34-1.453c0-1.029,0.408-1.896,1.224-2.599
			c0.816-0.703,1.825-1.054,3.026-1.054c0.476,0,0.941,0.068,1.395,0.203c0.454,0.136,0.891,0.339,1.312,0.61l0.257-0.614h1.038
			l1.005,3.42l-1.162,0.423c-0.437-0.769-0.977-1.367-1.619-1.793s-1.326-0.639-2.051-0.639c-0.537,0-0.971,0.111-1.303,0.332
			s-0.498,0.504-0.498,0.847c0,0.587,0.91,1.088,2.731,1.503c0.393,0.089,0.703,0.161,0.93,0.216
			c1.417,0.343,2.385,0.767,2.906,1.27c0.52,0.504,0.78,1.229,0.78,2.175c0,1.173-0.457,2.147-1.37,2.922s-2.062,1.162-3.445,1.162
			c-0.426,0-0.868-0.069-1.324-0.208c-0.457-0.138-0.984-0.365-1.581-0.681l-0.208,0.747h-1.005V46.343z"/>
		<path fill="#3498DB" d="M55.292,36.264H55.06c-0.692,0-1.284,0.187-1.777,0.56c-0.493,0.374-0.944,0.981-1.353,1.822l-1.121-0.432
			l1.27-3.512h9.422l1.278,3.512l-1.129,0.432c-0.41-0.841-0.861-1.449-1.353-1.822c-0.493-0.374-1.082-0.56-1.768-0.56h-0.241
			v6.393c0,0.908,0.091,1.485,0.274,1.731s0.537,0.378,1.063,0.394l0.008,1.411h-5.678v-1.411c0.526-0.017,0.88-0.148,1.063-0.394
			c0.183-0.246,0.274-0.823,0.274-1.731L55.292,36.264L55.292,36.264z"/>
		<path fill="#3498DB" d="M63.096,46.193h5.678v-1.411c-0.526-0.017-0.881-0.148-1.067-0.394c-0.185-0.246-0.278-0.823-0.278-1.731
			v-1.445h0.988l3.52,4.981h3.62v-1.378c-0.387-0.039-0.714-0.134-0.98-0.286c-0.266-0.152-0.545-0.414-0.838-0.785l-2.225-2.872
			c0.869-0.266,1.511-0.646,1.926-1.142s0.623-1.13,0.623-1.905c0-1.041-0.383-1.821-1.15-2.341s-1.914-0.78-3.441-0.78h-6.376
			v1.403c0.531,0.022,0.888,0.155,1.071,0.398c0.183,0.244,0.274,0.822,0.274,1.735v4.417c0,0.908-0.091,1.485-0.274,1.731
			s-0.54,0.381-1.071,0.403V46.193L63.096,46.193z M67.43,39.668l-0.008-2.109c0-0.609,0.086-1.006,0.258-1.191
			c0.172-0.185,0.502-0.278,0.99-0.278c0.721,0,1.291,0.161,1.71,0.482s0.628,0.758,0.628,1.312c0,0.603-0.25,1.054-0.749,1.353
			s-1.251,0.448-2.255,0.448c-0.155,0-0.272-0.001-0.349-0.004C67.577,39.677,67.502,39.673,67.43,39.668L67.43,39.668z"/>
		<path fill="#3498DB" d="M75.881,46.193V44.79c0.531-0.022,0.888-0.156,1.071-0.403c0.183-0.246,0.274-0.823,0.274-1.731V38.24
			c0-0.913-0.091-1.492-0.274-1.735c-0.183-0.244-0.54-0.376-1.071-0.398v-1.403h9.539l1.569,3.462l-1.071,0.565
			c-0.598-0.88-1.263-1.54-1.997-1.98c-0.733-0.44-1.537-0.66-2.412-0.66c-0.515,0-0.859,0.089-1.034,0.266
			c-0.174,0.177-0.261,0.578-0.261,1.204v1.644h0.548c0.592,0,0.995-0.118,1.208-0.353s0.336-0.713,0.369-1.432h1.212v5.189H82.34
			c-0.077-0.675-0.242-1.168-0.494-1.478c-0.252-0.31-0.613-0.465-1.083-0.465h-0.548v2.69c0,0.62,0.087,1.016,0.261,1.187
			C80.65,44.715,81,44.8,81.526,44.8c0.891,0,1.76-0.277,2.607-0.83s1.572-1.326,2.175-2.316l1.088,0.598l-1.735,3.943h-9.78V46.193
			z"/>
		<path fill="#3498DB" d="M92.393,46.193v-1.378c-0.454-0.011-0.785-0.08-0.992-0.208c-0.208-0.127-0.311-0.324-0.311-0.589
			c0-0.05,0.004-0.102,0.012-0.158c0.008-0.055,0.026-0.13,0.054-0.224l0.49-1.577h3.669l0.598,1.586
			c0.033,0.083,0.058,0.167,0.075,0.253s0.025,0.17,0.025,0.253c0,0.238-0.089,0.408-0.266,0.511
			c-0.177,0.102-0.473,0.154-0.888,0.154h-0.116v1.378h5.678V44.79c-0.404-0.05-0.713-0.165-0.926-0.345
			c-0.213-0.18-0.444-0.588-0.693-1.225l-3.296-8.518h-2.598l-3.371,8.103l-0.033,0.083c-0.482,1.162-1.126,1.793-1.934,1.893v1.411
			L92.393,46.193L92.393,46.193z M92.26,40.647l1.328-3.396l1.137,3.396H92.26L92.26,40.647z"/>
		<path fill="#3498DB" d="M103.617,37.418v5.272c0,0.919,0.095,1.503,0.286,1.752s0.566,0.374,1.125,0.374h0.05v1.378h-4.475V44.79
			c0.531-0.022,0.888-0.156,1.071-0.403c0.183-0.246,0.274-0.823,0.274-1.731V38.24c0-0.913-0.091-1.492-0.274-1.735
			c-0.183-0.244-0.54-0.376-1.071-0.398v-1.403h4.881l2.432,7.032l2.366-7.032h5.247v1.411h-0.116c-0.559,0-0.937,0.123-1.133,0.369
			c-0.196,0.246-0.295,0.832-0.295,1.756v4.417c0,0.919,0.098,1.503,0.295,1.752c0.196,0.249,0.574,0.374,1.133,0.374h0.116v1.411
			h-5.969v-1.378h0.125c0.57,0,0.953-0.122,1.15-0.365c0.196-0.244,0.295-0.83,0.295-1.76v-5.272l-2.906,8.775h-1.586
			L103.617,37.418L103.617,37.418z"/>
	</g>
	<g>
		<path fill="#FF0000" d="M127.413,34.524v1.432c-0.52,0.017-0.873,0.151-1.058,0.403c-0.185,0.251-0.278,0.843-0.278,1.776v4.509
			c0,0.927,0.091,1.516,0.274,1.767s0.537,0.386,1.062,0.403v1.441h-5.661l0.008-1.441c0.52-0.017,0.87-0.148,1.05-0.394
			c0.18-0.246,0.27-0.838,0.27-1.776v-4.509c0-0.944-0.091-1.538-0.274-1.784c-0.183-0.246-0.534-0.377-1.054-0.394v-1.432
			L127.413,34.524L127.413,34.524z"/>
		<path fill="#FF0000" d="M128.318,46.254v-1.432c0.531-0.023,0.888-0.16,1.071-0.411s0.274-0.84,0.274-1.767v-4.509
			c0-0.932-0.091-1.523-0.274-1.771c-0.183-0.249-0.54-0.384-1.071-0.407v-1.432h4.864l3.959,6.679v-3.11
			c0-0.927-0.093-1.516-0.278-1.767s-0.541-0.386-1.067-0.403v-1.398h4.25v1.432c-0.515,0.017-0.863,0.148-1.046,0.394
			c-0.183,0.246-0.274,0.84-0.274,1.784v8.119h-2.125l-5.362-9.009v5.433c0,0.938,0.091,1.531,0.274,1.78s0.534,0.379,1.054,0.39
			v1.407h-4.249V46.254z"/>
		<path fill="#FF0000" d="M142.304,46.406l-1.394-4.373l1.295-0.449c0.537,1.04,1.19,1.843,1.959,2.411s1.591,0.852,2.465,0.852
			c0.581,0,1.068-0.15,1.461-0.449s0.589-0.67,0.589-1.11c0-0.605-0.822-1.11-2.465-1.517c-0.255-0.068-0.451-0.119-0.589-0.153
			c-0.924-0.237-1.617-0.434-2.079-0.589c-0.462-0.155-0.784-0.301-0.967-0.436c-0.421-0.299-0.744-0.672-0.971-1.119
			c-0.227-0.446-0.34-0.941-0.34-1.483c0-1.051,0.408-1.935,1.224-2.653s1.825-1.076,3.025-1.076c0.476,0,0.941,0.069,1.394,0.208
			c0.454,0.138,0.891,0.346,1.311,0.623l0.257-0.627h1.038l1.004,3.492l-1.162,0.432c-0.437-0.785-0.977-1.396-1.619-1.831
			s-1.325-0.653-2.05-0.653c-0.537,0-0.971,0.113-1.303,0.339s-0.498,0.514-0.498,0.864c0,0.599,0.91,1.11,2.731,1.534
			c0.393,0.09,0.703,0.164,0.93,0.22c1.417,0.35,2.385,0.783,2.905,1.297s0.78,1.254,0.78,2.221c0,1.198-0.457,2.192-1.37,2.983
			s-2.061,1.187-3.445,1.187c-0.426,0-0.867-0.071-1.324-0.212c-0.456-0.141-0.984-0.373-1.581-0.695l-0.208,0.763L142.304,46.406
			L142.304,46.406z"/>
		<path fill="#FF0000" d="M156.572,39.957c0.066,0.006,0.137,0.01,0.212,0.013c0.075,0.003,0.19,0.004,0.344,0.004
			c0.946,0,1.653-0.171,2.121-0.513s0.701-0.855,0.701-1.538c0-0.61-0.198-1.089-0.593-1.437c-0.396-0.347-0.939-0.521-1.631-0.521
			c-0.454,0-0.761,0.092-0.921,0.275c-0.16,0.184-0.241,0.583-0.241,1.199L156.572,39.957L156.572,39.957z M158.473,34.524
			c1.483,0,2.605,0.297,3.366,0.89s1.141,1.475,1.141,2.644c0,1.13-0.358,1.975-1.075,2.534s-1.8,0.839-3.25,0.839h-2.083v1.212
			c0,0.927,0.092,1.516,0.276,1.767s0.538,0.386,1.06,0.403v1.441h-5.677v-1.432c0.531-0.023,0.888-0.16,1.071-0.411
			s0.274-0.84,0.274-1.767v-4.509c0-0.932-0.091-1.523-0.274-1.771c-0.183-0.249-0.54-0.384-1.071-0.407v-1.432h6.242V34.524z"/>
		<path fill="#FF0000" d="M163.702,46.254v-1.432c0.531-0.023,0.888-0.16,1.071-0.411s0.274-0.84,0.274-1.767v-4.509
			c0-0.932-0.091-1.523-0.274-1.771c-0.183-0.249-0.54-0.384-1.071-0.407v-1.432h9.537l1.569,3.534l-1.071,0.576
			c-0.598-0.898-1.263-1.572-1.996-2.021s-1.537-0.674-2.411-0.674c-0.515,0-0.859,0.09-1.033,0.271
			c-0.174,0.181-0.261,0.59-0.261,1.229v1.678h0.548c0.592,0,0.995-0.12,1.208-0.36s0.336-0.727,0.369-1.462h1.212v5.297h-1.212
			c-0.077-0.689-0.242-1.192-0.494-1.509c-0.252-0.316-0.613-0.475-1.083-0.475h-0.548v2.746c0,0.633,0.087,1.037,0.261,1.212
			c0.174,0.175,0.524,0.263,1.05,0.263c0.891,0,1.76-0.283,2.606-0.848c0.847-0.565,1.572-1.353,2.175-2.365l1.087,0.61
			l-1.735,4.026L163.702,46.254L163.702,46.254z"/>
		<path fill="#FF0000" d="M185.922,42.177l1.428,0.678c-0.564,1.198-1.291,2.11-2.179,2.738c-0.888,0.627-1.899,0.941-3.034,0.941
			c-0.769,0-1.526-0.144-2.27-0.432s-1.382-0.684-1.913-1.187c-0.62-0.582-1.08-1.25-1.382-2.004s-0.452-1.612-0.452-2.572
			c0-0.966,0.149-1.824,0.448-2.572c0.299-0.749,0.761-1.42,1.386-2.013c0.504-0.48,1.083-0.849,1.739-1.106s1.34-0.386,2.054-0.386
			c0.443,0,0.878,0.061,1.307,0.182s0.854,0.304,1.274,0.547l0.183-0.678h1.021l1.411,4.306l-1.253,0.432
			c-0.426-1.017-0.955-1.812-1.585-2.386c-0.631-0.574-1.287-0.86-1.967-0.86c-0.874,0-1.572,0.407-2.092,1.22
			c-0.52,0.814-0.78,1.918-0.78,3.314c0,1.407,0.271,2.507,0.813,3.301s1.289,1.191,2.241,1.191c0.67,0,1.331-0.239,1.984-0.716
			C184.956,43.636,185.496,42.991,185.922,42.177L185.922,42.177z"/>
		<path fill="#FF0000" d="M191.973,36.117h-0.232c-0.692,0-1.284,0.191-1.776,0.572c-0.492,0.381-0.943,1.002-1.353,1.86
			l-1.121-0.441l1.27-3.585h9.421l1.278,3.585l-1.129,0.441c-0.41-0.859-0.86-1.479-1.353-1.86
			c-0.492-0.381-1.082-0.572-1.768-0.572h-0.241v6.526c0,0.927,0.091,1.516,0.274,1.767s0.537,0.386,1.062,0.403l0.008,1.441h-5.677
			v-1.441c0.526-0.017,0.88-0.151,1.062-0.403c0.183-0.251,0.274-0.84,0.274-1.767L191.973,36.117L191.973,36.117z"/>
		<path fill="#FF0000" d="M205.485,34.524v1.432c-0.52,0.017-0.873,0.151-1.058,0.403c-0.185,0.251-0.278,0.843-0.278,1.776v4.509
			c0,0.927,0.091,1.516,0.274,1.767s0.537,0.386,1.062,0.403v1.441h-5.661l0.008-1.441c0.52-0.017,0.87-0.148,1.05-0.394
			c0.18-0.246,0.27-0.838,0.27-1.776v-4.509c0-0.944-0.091-1.538-0.274-1.784c-0.183-0.246-0.534-0.377-1.054-0.394v-1.432
			L205.485,34.524L205.485,34.524z"/>
		<path fill="#FF0000" d="M209.76,40.389c0,1.486,0.26,2.633,0.78,3.441c0.52,0.808,1.256,1.212,2.208,1.212
			c0.957,0,1.699-0.405,2.224-1.216c0.526-0.811,0.789-1.956,0.789-3.437c0-1.48-0.263-2.626-0.789-3.437s-1.267-1.216-2.224-1.216
			c-0.952,0-1.688,0.404-2.208,1.212C210.02,37.756,209.76,38.903,209.76,40.389L209.76,40.389z M206.548,40.389
			c0-1.836,0.57-3.317,1.71-4.441s2.637-1.687,4.49-1.687c1.854,0,3.355,0.564,4.503,1.691c1.148,1.127,1.722,2.606,1.722,4.437
			s-0.574,3.31-1.722,4.437s-2.649,1.691-4.503,1.691s-3.351-0.564-4.49-1.691C207.118,43.698,206.548,42.219,206.548,40.389
			L206.548,40.389z"/>
		<path fill="#FF0000" d="M219.969,46.254v-1.432c0.531-0.023,0.888-0.16,1.071-0.411s0.274-0.84,0.274-1.767v-4.509
			c0-0.932-0.091-1.523-0.274-1.771c-0.183-0.249-0.54-0.384-1.071-0.407v-1.432h4.864l3.959,6.679v-3.11
			c0-0.927-0.093-1.516-0.278-1.767s-0.541-0.386-1.067-0.403v-1.398h4.25v1.432c-0.515,0.017-0.863,0.148-1.046,0.394
			c-0.183,0.246-0.274,0.84-0.274,1.784v8.119h-2.125l-5.362-9.009v5.433c0,0.938,0.091,1.531,0.274,1.78s0.534,0.379,1.054,0.39
			v1.407h-4.249V46.254z"/>
		<path fill="#FF0000" d="M233.955,46.406l-1.394-4.373l1.295-0.449c0.537,1.04,1.19,1.843,1.959,2.411s1.591,0.852,2.465,0.852
			c0.581,0,1.068-0.15,1.461-0.449s0.589-0.67,0.589-1.11c0-0.605-0.822-1.11-2.465-1.517c-0.255-0.068-0.451-0.119-0.589-0.153
			c-0.924-0.237-1.617-0.434-2.079-0.589c-0.462-0.155-0.784-0.301-0.967-0.436c-0.421-0.299-0.744-0.672-0.971-1.119
			c-0.227-0.446-0.34-0.941-0.34-1.483c0-1.051,0.408-1.935,1.224-2.653s1.825-1.076,3.025-1.076c0.476,0,0.941,0.069,1.394,0.208
			c0.454,0.138,0.891,0.346,1.311,0.623l0.257-0.627h1.038l1.004,3.492l-1.162,0.432c-0.437-0.785-0.977-1.396-1.619-1.831
			s-1.325-0.653-2.05-0.653c-0.537,0-0.971,0.113-1.303,0.339s-0.498,0.514-0.498,0.864c0,0.599,0.91,1.11,2.731,1.534
			c0.393,0.09,0.703,0.164,0.93,0.22c1.417,0.35,2.385,0.783,2.905,1.297s0.78,1.254,0.78,2.221c0,1.198-0.456,2.192-1.37,2.983
			c-0.913,0.791-2.061,1.187-3.445,1.187c-0.426,0-0.867-0.071-1.324-0.212c-0.457-0.141-0.984-0.373-1.581-0.695l-0.208,0.763
			L233.955,46.406L233.955,46.406z"/>
	</g>
	<path fill="#FF0000" d="M44.353,47.189c-0.285-0.104-0.564-0.222-0.838-0.352l-0.155,0.559h-1.63l-0.206-0.632h-0.426l-1.618-4.97
		l2.001-0.68c-0.069-0.075-0.135-0.153-0.196-0.234c-0.396-0.302-0.727-0.699-0.952-1.136c-0.267-0.517-0.388-1.067-0.387-1.646
		c-0.006-0.587,0.128-1.167,0.391-1.692c0.127-0.254,0.29-0.496,0.476-0.718c-0.393-0.981-0.714-1.866-0.961-2.655
		c0.84-0.629,2.1-1.532,3.78-2.708s2.966-2.098,3.858-2.766c0.194,0.116,0.391,0.235,0.591,0.356s0.397,0.24,0.591,0.356
		c-0.233,1.239-0.788,2.826-1.667,4.762l2.462,0.828c2.055-2.391,3.567-4.331,4.536-5.822c0.892-1.355,1.338-2.328,1.338-2.918
		c0-0.648-0.275-1.37-0.824-2.163c-0.549-0.794-1.27-1.464-2.161-2.011c-0.892-0.547-1.803-0.82-2.733-0.82
		c-0.646,0.116-1.357,0.436-2.132,0.958c-2.184,1.287-5.363,3.765-9.538,7.433c-0.129-0.939-0.252-2.342-0.368-4.21
		s-0.233-3.262-0.349-4.181c0.103-0.474,0.155-0.968,0.155-1.481l-9.208,2.439c0,1.965,0.32,4.397,0.96,7.296
		s1.276,5.103,1.909,6.613c-1.512,1.336-2.846,2.751-4.003,4.247c-1.157,1.495-2.485,3.395-3.984,5.699
		c-1.499,2.304-2.572,3.905-3.218,4.806c0.155,0.174,0.32,0.358,0.494,0.552c0.174,0.194,0.565,0.605,1.173,1.234
		c0.465,0.59,0.678,0.886,0.64,0.886c3.451-5.14,7.024-9.519,10.72-13.139c0.039,0.039,0.275,0.646,0.708,1.822
		s0.973,2.434,1.619,3.775c0.646,1.341,1.435,2.669,2.365,3.985L44.353,47.189L44.353,47.189z"/>
	<path fill="#FF0000" d="M43.979,42.357c-0.496-0.14-0.986-0.293-1.362-0.444c-0.393-0.157-0.754-0.407-1.057-0.715
		c0.12,0.229,0.228,0.43,0.34,0.62l0.243-0.082c0.333,0.642,0.565,1.056,1.004,1.594c0.019,0.023,0.038,0.046,0.058,0.069
		c0.425,0.359,0.908,0.65,1.417,0.819c0.156,0.051,0.316,0.092,0.477,0.121C44.722,43.7,44.349,43.039,43.979,42.357L43.979,42.357z
		"/>
	<g>
		<path fill="#FFFFFF" d="M64.247,55.261c0,0.954-0.377,1.571-1.132,1.849l1.508,2.13h-1.636l-1.32-1.9h-0.92v1.9h-1.329v-5.955
			h2.257c0.925,0,1.586,0.156,1.981,0.469C64.05,54.066,64.247,54.568,64.247,55.261z M62.646,55.968
			c0.165-0.147,0.247-0.382,0.247-0.703s-0.085-0.541-0.256-0.66c-0.17-0.119-0.468-0.179-0.894-0.179h-0.996v1.763h0.971
			C62.172,56.189,62.481,56.116,62.646,55.968z"/>
		<path fill="#FFFFFF" d="M70.756,53.285v1.184h-2.964v1.227h2.667v1.133h-2.667v1.235h3.059v1.176h-4.388v-5.955
			C66.463,53.285,70.756,53.285,70.756,53.285z"/>
		<path fill="#FFFFFF" d="M74.279,54.473c-0.128,0.105-0.191,0.244-0.191,0.417s0.078,0.311,0.234,0.413
			c0.156,0.103,0.517,0.223,1.082,0.362s1.004,0.348,1.316,0.626c0.312,0.278,0.468,0.684,0.468,1.218c0,0.534-0.2,0.967-0.6,1.299
			s-0.927,0.498-1.581,0.498c-0.943,0-1.791-0.349-2.547-1.048l0.792-0.971c0.642,0.562,1.235,0.843,1.78,0.843
			c0.244,0,0.435-0.053,0.575-0.158c0.139-0.105,0.209-0.247,0.209-0.426c0-0.179-0.074-0.321-0.222-0.426s-0.44-0.212-0.877-0.32
			c-0.693-0.165-1.2-0.379-1.521-0.643c-0.321-0.264-0.482-0.678-0.482-1.244c0-0.565,0.203-1.001,0.609-1.308
			c0.406-0.306,0.913-0.46,1.521-0.46c0.397,0,0.795,0.068,1.192,0.204c0.397,0.136,0.744,0.33,1.04,0.58L76.403,54.9
			c-0.518-0.392-1.051-0.588-1.602-0.588C74.581,54.315,74.406,54.368,74.279,54.473z"/>
		<path fill="#FFFFFF" d="M79.172,53.285h1.329v5.955h-1.329V53.285z"/>
		<path fill="#FFFFFF" d="M87.368,54.064c0.568,0.519,0.852,1.242,0.852,2.168s-0.277,1.658-0.831,2.198s-1.399,0.809-2.535,0.809
			h-2.035v-5.955h2.104C85.985,53.285,86.8,53.544,87.368,54.064z M86.392,57.604c0.326-0.306,0.49-0.752,0.49-1.338
			c0-0.585-0.164-1.035-0.49-1.35s-0.828-0.473-1.504-0.473h-0.74v3.62h0.843C85.598,58.063,86.066,57.911,86.392,57.604z"/>
		<path fill="#FFFFFF" d="M94.515,53.285v1.184H91.55v1.227h2.667v1.133H91.55v1.235h3.059v1.176h-4.388v-5.955
			C90.221,53.285,94.515,53.285,94.515,53.285z"/>
		<path fill="#FFFFFF" d="M100.811,53.285h1.329v5.955h-1.329l-2.837-3.731v3.731h-1.329v-5.955h1.244l2.922,3.833V53.285z"/>
		<path fill="#FFFFFF" d="M106.978,54.434v4.805h-1.328v-4.805h-1.687v-1.15h4.702v1.15H106.978z"/>
		<path fill="#FFFFFF" d="M110.488,53.285h1.329v5.955h-1.329V53.285z"/>
		<path fill="#FFFFFF" d="M118.377,59.239l-0.554-1.286h-2.496l-0.554,1.286h-1.414l2.573-5.955h1.287l2.573,5.955H118.377z
			 M116.579,55.057l-0.75,1.729h1.491L116.579,55.057z"/>
		<path fill="#FFFFFF" d="M121.333,59.239v-5.955h1.329v4.771h2.538v1.184H121.333z"/>
		<path fill="#FFFFFF" d="M133.6,58.728c-0.477,0.386-1.03,0.579-1.657,0.579c-0.628,0-1.143-0.16-1.546-0.481
			s-0.605-0.759-0.605-1.316c0-0.624,0.417-1.178,1.253-1.661c-0.188-0.227-0.324-0.427-0.409-0.6
			c-0.086-0.173-0.128-0.376-0.128-0.609c0-0.483,0.175-0.852,0.524-1.107c0.349-0.256,0.763-0.384,1.24-0.384
			s0.885,0.123,1.223,0.371c0.337,0.247,0.507,0.592,0.507,1.035c0,0.557-0.406,1.074-1.218,1.551
			c0.318,0.397,0.556,0.684,0.715,0.861c0.142-0.261,0.25-0.537,0.324-0.826l0.997,0.715c-0.131,0.358-0.29,0.69-0.478,0.997
			l0.844,0.835l-0.844,0.801L133.6,58.728z M131.308,58.047c0.165,0.13,0.377,0.196,0.639,0.196c0.261,0,0.542-0.125,0.843-0.375
			c-0.414-0.437-0.772-0.835-1.073-1.192c-0.437,0.273-0.656,0.565-0.656,0.877C131.061,57.752,131.143,57.916,131.308,58.047z
			 M132.271,54.153c-0.125,0-0.238,0.044-0.336,0.132c-0.1,0.088-0.149,0.207-0.149,0.358s0.114,0.368,0.34,0.652
			c0.426-0.227,0.64-0.44,0.64-0.639c0-0.165-0.052-0.29-0.153-0.375C132.509,54.196,132.396,54.153,132.271,54.153z"/>
		<path fill="#FFFFFF" d="M142.775,58.063c0.653,0,1.187-0.258,1.602-0.775l0.851,0.878c-0.676,0.761-1.473,1.141-2.389,1.141
			c-0.917,0-1.672-0.289-2.266-0.869c-0.594-0.579-0.89-1.31-0.89-2.194c0-0.883,0.302-1.62,0.907-2.211s1.345-0.886,2.219-0.886
			c0.976,0,1.794,0.372,2.453,1.116l-0.826,0.937c-0.421-0.522-0.943-0.784-1.568-0.784c-0.499,0-0.927,0.164-1.282,0.49
			c-0.355,0.327-0.532,0.767-0.532,1.32c0,0.554,0.167,0.998,0.503,1.333C141.892,57.896,142.298,58.063,142.775,58.063z"/>
		<path fill="#FFFFFF" d="M152.01,58.417c-0.603,0.588-1.344,0.882-2.224,0.882s-1.621-0.294-2.223-0.882
			c-0.602-0.587-0.903-1.319-0.903-2.194c0-0.874,0.301-1.606,0.903-2.194s1.343-0.882,2.223-0.882s1.621,0.294,2.224,0.882
			c0.602,0.588,0.902,1.319,0.902,2.194C152.912,57.098,152.611,57.83,152.01,58.417z M151.558,56.228
			c0-0.531-0.17-0.984-0.511-1.359c-0.34-0.375-0.76-0.562-1.256-0.562c-0.497,0-0.916,0.187-1.257,0.562
			c-0.34,0.375-0.511,0.828-0.511,1.359c0,0.531,0.171,0.983,0.511,1.355c0.341,0.372,0.76,0.558,1.257,0.558
			c0.496,0,0.916-0.186,1.256-0.558C151.388,57.21,151.558,56.759,151.558,56.228z"/>
		<path fill="#FFFFFF" d="M160.222,55.491l-1.61,3.254h-0.792l-1.602-3.254v3.748h-1.328v-5.955h1.797l1.534,3.271l1.542-3.271
			h1.789v5.955h-1.328v-3.748H160.222z"/>
		<path fill="#FFFFFF" d="M169.201,55.491l-1.61,3.254h-0.792l-1.602-3.254v3.748h-1.328v-5.955h1.797l1.534,3.271l1.542-3.271
			h1.789v5.955h-1.328v-3.748H169.201z"/>
		<path fill="#FFFFFF" d="M177.14,53.285v1.184h-2.964v1.227h2.667v1.133h-2.667v1.235h3.059v1.176h-4.387v-5.955
			C172.848,53.285,177.14,53.285,177.14,53.285z"/>
		<path fill="#FFFFFF" d="M184.1,55.261c0,0.954-0.378,1.571-1.133,1.849l1.509,2.13h-1.636l-1.32-1.9h-0.921v1.9h-1.328v-5.955
			h2.257c0.925,0,1.585,0.156,1.981,0.469C183.902,54.066,184.1,54.568,184.1,55.261z M182.498,55.968
			c0.165-0.147,0.248-0.382,0.248-0.703s-0.085-0.541-0.256-0.66c-0.17-0.119-0.469-0.179-0.894-0.179h-0.997v1.763h0.972
			C182.024,56.189,182.334,56.116,182.498,55.968z"/>
		<path fill="#FFFFFF" d="M189.049,58.063c0.653,0,1.187-0.258,1.602-0.775l0.851,0.878c-0.676,0.761-1.473,1.141-2.389,1.141
			s-1.672-0.289-2.266-0.869c-0.594-0.579-0.89-1.31-0.89-2.194c0-0.883,0.302-1.62,0.907-2.211s1.345-0.886,2.219-0.886
			c0.976,0,1.794,0.372,2.453,1.116L190.71,55.2c-0.421-0.522-0.943-0.784-1.568-0.784c-0.499,0-0.927,0.164-1.282,0.49
			c-0.355,0.327-0.532,0.767-0.532,1.32c0,0.554,0.167,0.998,0.503,1.333C188.165,57.896,188.572,58.063,189.049,58.063z"/>
		<path fill="#FFFFFF" d="M193.403,53.285h1.328v5.955h-1.328V53.285z"/>
		<path fill="#FFFFFF" d="M201.291,59.239l-0.554-1.286h-2.496l-0.554,1.286h-1.414l2.573-5.955h1.287l2.573,5.955H201.291z
			 M199.494,55.057l-0.75,1.729h1.49L199.494,55.057z"/>
		<path fill="#FFFFFF" d="M204.248,59.239v-5.955h1.328v4.771h2.539v1.184H204.248z"/>
	</g>
</g>
</svg>
